<svg width="161" height="103" viewBox="0 0 161 103" fill="none" xmlns="http://www.w3.org/2000/svg">
<path fill-rule="evenodd" clip-rule="evenodd" d="M115.888 52.1813C114.004 48.6579 108.953 48.6579 107.07 52.1813L96.2044 72.5036C94.4236 75.8343 96.8369 79.861 100.614 79.861H122.344C126.121 79.861 128.534 75.8343 126.753 72.5036L115.888 52.1813ZM119.482 12.9968C115.925 6.34366 107.033 6.34365 103.476 12.9968L63.4586 87.8448C59.9015 94.498 64.3478 102.814 71.462 102.814H151.496C158.61 102.814 163.056 94.498 159.499 87.8448L119.482 12.9968Z" fill="black"/>
<path fill-rule="evenodd" clip-rule="evenodd" d="M45.6141 50.8831C47.4978 54.4065 52.549 54.4065 54.4328 50.8831L65.298 30.5608C67.0787 27.2301 64.6654 23.2033 60.8886 23.2033L39.1583 23.2033C35.3814 23.2033 32.9682 27.2301 34.7489 30.5608L45.6141 50.8831ZM42.02 90.0676C45.5771 96.7207 54.4697 96.7207 58.0268 90.0676L98.0437 15.2196C101.601 8.56641 97.1545 0.249964 90.0404 0.249964L10.0065 0.249964C2.89237 0.249964 -1.55396 8.5664 2.0031 15.2196L42.02 90.0676Z" fill="black"/>
</svg>
